<?xml version="1.0" encoding="UTF-8" standalone="no"?>
<!-- Created with Inkscape (http://www.inkscape.org/) -->

<svg
   xmlns:dc="http://purl.org/dc/elements/1.1/"
   xmlns:cc="http://creativecommons.org/ns#"
   xmlns:rdf="http://www.w3.org/1999/02/22-rdf-syntax-ns#"
   xmlns:svg="http://www.w3.org/2000/svg"
   xmlns="http://www.w3.org/2000/svg"
   xmlns:sodipodi="http://sodipodi.sourceforge.net/DTD/sodipodi-0.dtd"
   xmlns:inkscape="http://www.inkscape.org/namespaces/inkscape"
   version="1.0"
   width="160"
   height="85"
   id="svg2"
   inkscape:version="0.91 r13725"
   sodipodi:docname="4-Band_Resistor.svg"
   style="enable-background:new">
  <metadata
     id="metadata31">
    <rdf:RDF>
      <cc:Work
         rdf:about="">
        <dc:format>image/svg+xml</dc:format>
        <dc:type
           rdf:resource="http://purl.org/dc/dcmitype/StillImage" />
        <dc:title></dc:title>
        <cc:license
           rdf:resource="http://creativecommons.org/licenses/by/3.0/" />
      </cc:Work>
      <cc:License
         rdf:about="http://creativecommons.org/licenses/by/3.0/">
        <cc:permits
           rdf:resource="http://creativecommons.org/ns#Reproduction" />
        <cc:permits
           rdf:resource="http://creativecommons.org/ns#Distribution" />
        <cc:requires
           rdf:resource="http://creativecommons.org/ns#Notice" />
        <cc:requires
           rdf:resource="http://creativecommons.org/ns#Attribution" />
        <cc:permits
           rdf:resource="http://creativecommons.org/ns#DerivativeWorks" />
      </cc:License>
    </rdf:RDF>
  </metadata>
  <sodipodi:namedview
     pagecolor="#ffffff"
     bordercolor="#666666"
     borderopacity="1"
     objecttolerance="10"
     gridtolerance="10"
     guidetolerance="10"
     inkscape:pageopacity="0"
     inkscape:pageshadow="2"
     inkscape:window-width="1920"
     inkscape:window-height="986"
     id="namedview29"
     showgrid="false"
     fit-margin-top="1"
     fit-margin-left="1"
     fit-margin-right="1"
     fit-margin-bottom="1"
     inkscape:zoom="2.8284271"
     inkscape:cx="56.181542"
     inkscape:cy="43.478167"
     inkscape:window-x="0"
     inkscape:window-y="27"
     inkscape:window-maximized="1"
     inkscape:current-layer="layer2"
     units="px" />
  <defs
     id="defs4" />
  <g
     inkscape:groupmode="layer"
     id="layer3"
     inkscape:label="Wire"
     transform="translate(0,-55.000014)" />
  <g
     inkscape:groupmode="layer"
     id="layer1"
     inkscape:label="Res"
     style="display:inline"
     transform="translate(0,-55.000014)" />
  <g
     inkscape:groupmode="layer"
     id="layer2"
     inkscape:label="Color"
     style="display:inline"
     transform="translate(0,-55.000014)">
    <rect
       id="rect10083"
       style="opacity:1;fill:#999999;fill-opacity:1;stroke:#000000;stroke-width:0.66083264;stroke-linecap:round;stroke-linejoin:round;stroke-miterlimit:4;stroke-dasharray:none;stroke-dashoffset:0;stroke-opacity:1;enable-background:new"
       y="84.298264"
       x="140.0936"
       height="8.1606817"
       width="16.053799" />
    <rect
       id="rect9208"
       style="opacity:1;fill:#999999;fill-opacity:1;stroke:#000000;stroke-width:0.67151284;stroke-linecap:round;stroke-linejoin:round;stroke-miterlimit:4;stroke-dasharray:none;stroke-dashoffset:0;stroke-opacity:1;enable-background:new"
       y="84.298264"
       x="3.8579459"
       height="8.1606817"
       width="16.58461" />
    <g
       style="display:inline;enable-background:new"
       id="g4184"
       transform="matrix(0.62177113,0,0,0.62177113,-2.0380983,44.85462)">
      <path
         inkscape:connector-curvature="0"
         id="path7450"
         style="fill:#cccc9a;fill-opacity:1;fill-rule:evenodd;stroke:#000000;stroke-width:1.31248951px;stroke-linecap:butt;stroke-linejoin:miter;stroke-opacity:1"
         d="m 33.505818,69.998379 c 0,-32.812239 32.812237,-32.812239 45.937133,-32.812239 13.124896,0 19.687342,6.562448 52.499579,6.562448 32.81224,0 39.37468,-6.562448 52.49958,-6.562448 13.12489,0 45.93713,0 45.93713,32.812239 0,32.812241 -32.81224,32.812241 -45.93713,32.812241 -13.1249,0 -19.68734,-6.56245 -52.49958,-6.56245 -32.812237,0 -39.374683,6.56245 -52.499579,6.56245 -13.124896,0 -45.672227,0.93921 -45.937133,-32.812241 z"
         clip-path="none" />
    </g>
    <path
       sodipodi:nodetypes="ccccc"
       d="m 86.279491,71.90809 0,32.9332 c 2.599737,0.0962 5.323119,0.36016 8.160683,0.72987 l 0,-34.388542 c -3.074565,-0.0082 -5.617266,0.623644 -8.160683,0.725472 z"
       style="fill:#333333;fill-opacity:1;fill-rule:evenodd;stroke:none;stroke-width:1px;stroke-linecap:butt;stroke-linejoin:miter;stroke-opacity:1"
       id="rect2188"
       inkscape:connector-curvature="0" />
    <path
       sodipodi:nodetypes="ccccc"
       d="m 66.748646,71.336331 0,34.076989 c 2.901737,-0.31169 4.852314,-0.48111 8.160684,-0.62968 l 0,-32.822944 c -3.322111,-0.148564 -5.478774,-0.29207 -8.160684,-0.624365 z"
       style="fill:#222222;fill-opacity:1;fill-rule:evenodd;stroke:none;stroke-width:1px;stroke-linecap:butt;stroke-linejoin:miter;stroke-opacity:1"
       id="path1309"
       inkscape:connector-curvature="0" />
    <path
       sodipodi:nodetypes="ccccc"
       d="m 48.453841,67.992556 0,40.751484 c 3.063268,-0.15113 5.334978,-0.75947 8.160681,-1.43465 l 0,-37.868839 c -2.825703,-0.675189 -5.118021,-1.276253 -8.160681,-1.447995 z"
       style="fill:#111111;fill-opacity:1;fill-rule:evenodd;stroke:none;stroke-width:1px;stroke-linecap:butt;stroke-linejoin:miter;stroke-opacity:1"
       id="path1307"
       inkscape:connector-curvature="0" />
    <text
       sodipodi:linespacing="125%"
       id="text4149"
       y="124.7952"
       x="79.664513"
       style="font-style:normal;font-weight:normal;font-size:19.08311272px;line-height:125%;font-family:sans-serif;text-align:center;letter-spacing:0px;word-spacing:0px;text-anchor:middle;fill:#000000;fill-opacity:1;stroke:none;stroke-width:1px;stroke-linecap:butt;stroke-linejoin:miter;stroke-opacity:1"
       xml:space="preserve"><tspan
         y="124.7952"
         x="79.664513"
         id="tspan4151"
         sodipodi:role="line">@Ω</tspan></text>
    <path
       sodipodi:nodetypes="ccccc"
       d="m 112.86843,67.991533 c -2.626,-0.01581 -4.52891,0.277453 -8.16068,1.128866 l 0,38.506991 c 1.17482,0.25418 3.92812,1.12037 8.16068,1.14933 z"
       style="fill:#444444;fill-opacity:1;fill-rule:evenodd;stroke:none;stroke-width:1px;stroke-linecap:butt;stroke-linejoin:miter;stroke-opacity:1"
       id="rect2190"
       inkscape:connector-curvature="0"
       clip-path="none" />
    <path
       sodipodi:nodetypes="csssssssc"
       inkscape:connector-curvature="0"
       id="path4215"
       style="fill:none;fill-opacity:1;fill-rule:evenodd;stroke:#000000;stroke-width:0.81606811px;stroke-linecap:butt;stroke-linejoin:miter;stroke-opacity:1"
       d="m 18.794852,88.377591 c 0,-20.401702 20.401704,-20.401702 28.562381,-20.401702 8.160684,0 12.24102,4.080341 32.642724,4.080341 20.401703,0 24.482043,-4.080341 32.642723,-4.080341 8.16068,0 28.56238,0 28.56238,20.401702 0,20.401709 -20.4017,20.401709 -28.56238,20.401709 -8.16068,0 -12.24102,-4.08034 -32.642723,-4.08034 -20.401704,0 -24.48204,4.08034 -32.642724,4.08034 -8.160677,0 -28.397667,0.58398 -28.562381,-20.401709 z" />
  </g>
</svg>
