<?xml version="1.0" encoding="UTF-8" standalone="no"?>
<!-- Created with Inkscape (http://www.inkscape.org/) -->

<svg
   xmlns:dc="http://purl.org/dc/elements/1.1/"
   xmlns:cc="http://creativecommons.org/ns#"
   xmlns:rdf="http://www.w3.org/1999/02/22-rdf-syntax-ns#"
   xmlns:svg="http://www.w3.org/2000/svg"
   xmlns="http://www.w3.org/2000/svg"
   xmlns:sodipodi="http://sodipodi.sourceforge.net/DTD/sodipodi-0.dtd"
   xmlns:inkscape="http://www.inkscape.org/namespaces/inkscape"
   version="1.0"
   width="255"
   height="140"
   id="svg2"
   inkscape:version="0.91 r13725"
   sodipodi:docname="4-Band_Resistor.svg"
   enable-background="new">
  <metadata
     id="metadata31">
    <rdf:RDF>
      <cc:Work
         rdf:about="">
        <dc:format>image/svg+xml</dc:format>
        <dc:type
           rdf:resource="http://purl.org/dc/dcmitype/StillImage" />
        <dc:title></dc:title>
        <cc:license
           rdf:resource="http://creativecommons.org/licenses/by/3.0/" />
      </cc:Work>
      <cc:License
         rdf:about="http://creativecommons.org/licenses/by/3.0/">
        <cc:permits
           rdf:resource="http://creativecommons.org/ns#Reproduction" />
        <cc:permits
           rdf:resource="http://creativecommons.org/ns#Distribution" />
        <cc:requires
           rdf:resource="http://creativecommons.org/ns#Notice" />
        <cc:requires
           rdf:resource="http://creativecommons.org/ns#Attribution" />
        <cc:permits
           rdf:resource="http://creativecommons.org/ns#DerivativeWorks" />
      </cc:License>
    </rdf:RDF>
  </metadata>
  <sodipodi:namedview
     pagecolor="#ffffff"
     bordercolor="#666666"
     borderopacity="1"
     objecttolerance="10"
     gridtolerance="10"
     guidetolerance="10"
     inkscape:pageopacity="0"
     inkscape:pageshadow="2"
     inkscape:window-width="1920"
     inkscape:window-height="986"
     id="namedview29"
     showgrid="false"
     fit-margin-top="1"
     fit-margin-left="1"
     fit-margin-right="1"
     fit-margin-bottom="1"
     inkscape:zoom="5.6568543"
     inkscape:cx="126.42152"
     inkscape:cy="78.271505"
     inkscape:window-x="0"
     inkscape:window-y="27"
     inkscape:window-maximized="1"
     inkscape:current-layer="layer3" />
  <defs
     id="defs4" />
  <g
     inkscape:groupmode="layer"
     id="layer3"
     inkscape:label="Wire">
    <rect
       id="rect10083"
       style="opacity:1;fill:#999999;fill-opacity:1;stroke:#000000;stroke-width:1.06282294;stroke-linecap:round;stroke-linejoin:round;stroke-miterlimit:4;stroke-dasharray:none;stroke-dashoffset:0;stroke-opacity:1"
       y="63.437553"
       x="224.14912"
       height="13.124896"
       width="25.819466" />
    <rect
       id="rect9208"
       style="opacity:1;fill:#999999;fill-opacity:1;stroke:#000000;stroke-width:1.08000004;stroke-linecap:round;stroke-linejoin:round;stroke-miterlimit:4;stroke-dasharray:none;stroke-dashoffset:0;stroke-opacity:1"
       y="63.437553"
       x="5.0401311"
       height="13.124896"
       width="26.673174" />
  </g>
  <g
     inkscape:groupmode="layer"
     id="layer1"
     inkscape:label="Res"
     style="display:inline"
     sodipodi:insensitive="true">
    <g
       id="g4184"
       transform="translate(-4.442529,-1.4630512e-6)">
      <path
         inkscape:connector-curvature="0"
         id="path7450"
         style="fill:#b0753b;fill-opacity:1;fill-rule:evenodd;stroke:#000000;stroke-width:1.31248951px;stroke-linecap:butt;stroke-linejoin:miter;stroke-opacity:1"
         d="m 33.505818,69.998379 c 0,-32.812239 32.812237,-32.812239 45.937133,-32.812239 13.124896,0 19.687342,6.562448 52.499579,6.562448 32.81224,0 39.37468,-6.562448 52.49958,-6.562448 13.12489,0 45.93713,0 45.93713,32.812239 0,32.812241 -32.81224,32.812241 -45.93713,32.812241 -13.1249,0 -19.68734,-6.56245 -52.49958,-6.56245 -32.812237,0 -39.374683,6.56245 -52.499579,6.56245 -13.124896,0 -45.672227,0.93921 -45.937133,-32.812241 z"
         clip-path="none" />
    </g>
  </g>
  <g
     inkscape:groupmode="layer"
     id="layer2"
     inkscape:label="Color"
     style="display:inline">
    <path
       sodipodi:nodetypes="ccccc"
       d="m 137.59943,43.510332 0,52.96675 c 4.18118,0.154753 8.56122,0.579242 13.1249,1.173847 l 0,-55.307379 c -4.94485,-0.01313 -9.0343,1.003011 -13.1249,1.166782 z"
       style="fill:#333333;fill-opacity:1;fill-rule:evenodd;stroke:none;stroke-width:1px;stroke-linecap:butt;stroke-linejoin:miter;stroke-opacity:1"
       id="rect2188"
       inkscape:connector-curvature="0" />
    <path
       sodipodi:nodetypes="ccccc"
       d="m 106.1878,42.590767 0,54.806307 c 4.66689,-0.501288 7.80402,-0.773772 13.1249,-1.012711 l 0,-52.789424 c -5.34298,-0.238937 -8.81156,-0.469739 -13.1249,-1.004172 z"
       style="fill:#222222;fill-opacity:1;fill-rule:evenodd;stroke:none;stroke-width:1px;stroke-linecap:butt;stroke-linejoin:miter;stroke-opacity:1"
       id="path1309"
       inkscape:connector-curvature="0" />
    <path
       sodipodi:nodetypes="ccccc"
       d="m 76.764103,37.212945 0,65.540965 c 4.926682,-0.24307 8.580293,-1.22146 13.124896,-2.30737 l 0,-60.904772 C 85.344396,38.455855 81.65764,37.489159 76.764103,37.212945 Z"
       style="fill:#111111;fill-opacity:1;fill-rule:evenodd;stroke:none;stroke-width:1px;stroke-linecap:butt;stroke-linejoin:miter;stroke-opacity:1"
       id="path1307"
       inkscape:connector-curvature="0" />
    <text
       sodipodi:linespacing="125%"
       id="text4149"
       y="128.56915"
       x="126.9605"
       style="font-style:normal;font-weight:normal;font-size:30.69153786px;line-height:125%;font-family:sans-serif;text-align:center;letter-spacing:0px;word-spacing:0px;text-anchor:middle;fill:#000000;fill-opacity:1;stroke:none;stroke-width:1px;stroke-linecap:butt;stroke-linejoin:miter;stroke-opacity:1"
       xml:space="preserve"><tspan
         y="128.56915"
         x="126.9605"
         id="tspan4151"
         sodipodi:role="line">@Ω</tspan></text>
    <path
       sodipodi:nodetypes="ccccc"
       d="m 180.36265,37.2113 c -4.22341,-0.02542 -7.28388,0.446229 -13.12489,1.815564 l 0,61.931126 c 1.88948,0.40879 6.31763,1.8019 13.12489,1.84847 z"
       style="fill:#444444;fill-opacity:1;fill-rule:evenodd;stroke:none;stroke-width:1px;stroke-linecap:butt;stroke-linejoin:miter;stroke-opacity:1"
       id="rect2190"
       inkscape:connector-curvature="0"
       clip-path="none" />
    <path
       sodipodi:nodetypes="csssssssc"
       inkscape:connector-curvature="0"
       id="path4215"
       style="fill:none;fill-opacity:1;fill-rule:evenodd;stroke:#000000;stroke-width:1.31248951px;stroke-linecap:butt;stroke-linejoin:miter;stroke-opacity:1"
       d="m 29.06329,69.998377 c 0,-32.812238 32.81224,-32.812238 45.93713,-32.812238 13.1249,0 19.68734,6.562448 52.49958,6.562448 32.81224,0 39.37468,-6.562448 52.49958,-6.562448 13.12489,0 45.93713,0 45.93713,32.812238 0,32.812243 -32.81224,32.812243 -45.93713,32.812243 -13.1249,0 -19.68734,-6.562452 -52.49958,-6.562452 -32.81224,0 -39.37468,6.562452 -52.49958,6.562452 -13.12489,0 -45.67222,0.93921 -45.93713,-32.812243 z" />
  </g>
</svg>
